<svg width="33" height="34" viewBox="0 0 33 34" fill="none" xmlns="http://www.w3.org/2000/svg">
<path d="M16.5 0.78125C25.5312 0.78125 32.9688 8.21875 32.9688 17.25C32.9688 26.3477 25.5312 33.7188 16.5 33.7188C7.40234 33.7188 0.03125 26.3477 0.03125 17.25C0.03125 8.21875 7.40234 0.78125 16.5 0.78125ZM25.8633 7.88672C21.0156 3.03906 13.4453 2.77344 8.26562 6.82422L26.9258 25.4844C30.9766 20.3047 30.7109 12.7344 25.8633 7.88672ZM7.07031 26.6797C11.918 31.5273 19.4883 31.793 24.668 27.7422L6.00781 9.08203C1.95703 14.2617 2.22266 21.832 7.07031 26.6797Z" fill="#E3F3F2"/>
</svg>
