<svg width="22" height="18" viewBox="0 0 22 18" fill="none" xmlns="http://www.w3.org/2000/svg">
<path d="M20.9375 2.8125H1.0625C0.734375 2.8125 0.5 2.57812 0.5 2.25V0.75C0.5 0.46875 0.734375 0.1875 1.0625 0.1875H20.9375C21.2188 0.1875 21.5 0.46875 21.5 0.75V2.25C21.5 2.57812 21.2188 2.8125 20.9375 2.8125ZM20.9375 10.3125H1.0625C0.734375 10.3125 0.5 10.0781 0.5 9.75V8.25C0.5 7.96875 0.734375 7.6875 1.0625 7.6875H20.9375C21.2188 7.6875 21.5 7.96875 21.5 8.25V9.75C21.5 10.0781 21.2188 10.3125 20.9375 10.3125ZM20.9375 17.8125H1.0625C0.734375 17.8125 0.5 17.5781 0.5 17.25V15.75C0.5 15.4688 0.734375 15.1875 1.0625 15.1875H20.9375C21.2188 15.1875 21.5 15.4688 21.5 15.75V17.25C21.5 17.5781 21.2188 17.8125 20.9375 17.8125Z" fill="#00C6B8"/>
</svg>
