<svg width="69" height="69" viewBox="0 0 69 69" fill="none" xmlns="http://www.w3.org/2000/svg">
<path d="M49.491 17C50.4111 17.0002 51.2123 17.6281 51.4324 18.5215L53.4774 26.8232C54.2239 26.5776 55.6686 26.2445 56.4998 27C57.6682 28.0622 55.7232 31.2109 54.869 32.4697L54.9998 33V49C54.9998 50.1045 54.1043 51 52.9998 51H48.9998C47.8954 50.9999 46.9998 50.1045 46.9998 49V44H21.9998V49C21.9998 50.1045 21.1043 51 19.9998 51H15.9998C14.8954 50.9998 13.9998 50.1045 13.9998 49V33L14.2186 32.1113C13.4018 30.9615 11.1762 27.5809 12.4197 26.4697C13.3211 25.6646 14.9279 26.0876 15.6414 26.334L17.5672 18.5215C17.7874 17.628 18.5893 17 19.5096 17H49.491ZM18.9998 33C17.8954 33.0002 16.9998 33.8955 16.9998 35C16.9998 36.1045 17.8954 36.9998 18.9998 37H24.9998C26.1043 37 26.9998 36.1045 26.9998 35C26.9998 33.8955 26.1043 33 24.9998 33H18.9998ZM43.9998 33C42.8954 33.0002 41.9998 33.8955 41.9998 35C41.9998 36.1045 42.8954 36.9998 43.9998 37H49.9998C51.1043 37 51.9998 36.1045 51.9998 35C51.9998 33.8955 51.1043 33 49.9998 33H43.9998ZM21.5652 19C20.6661 19.0001 19.8773 19.6002 19.6375 20.4668L17.701 27.4668C17.3486 28.7407 18.307 30 19.6287 30H49.3719C50.6934 29.9998 51.6519 28.7405 51.2996 27.4668L49.3621 20.4668C49.1224 19.6002 48.3335 19 47.4344 19H21.5652Z" fill="white"/>
</svg>
