<svg width="68" height="68" viewBox="0 0 68 68" fill="none" xmlns="http://www.w3.org/2000/svg">
<path d="M57.4433 14.8629L47.796 30.3205L49.7053 47.508C49.7722 48.1072 49.5628 48.7045 49.1361 49.1312L45.1643 53.103C44.7134 53.5529 44.0725 53.7643 43.446 53.6596C42.8167 53.5587 42.2747 53.1621 41.9877 52.5939L35.263 39.2667L34.1275 40.3508L37.7007 51.0705C38.0479 52.111 37.4855 53.2358 36.445 53.583L30.4873 55.5689C30.2788 55.6387 30.0665 55.6716 29.859 55.6716C29.027 55.6716 28.2522 55.1451 27.9749 54.3131C27.6277 53.2727 28.1901 52.1478 29.2306 51.8007L33.3042 50.4432L29.9608 40.4119C29.7174 39.6817 29.9171 38.8778 30.4737 38.3465L34.4581 34.5444C34.9139 34.1109 35.5519 33.9189 36.1667 34.0246C36.7863 34.1313 37.3187 34.525 37.6018 35.0864L44.2965 48.3535L45.653 46.9979L43.7728 30.0732C43.7234 29.6291 43.8252 29.1811 44.0618 28.8029L54.1067 12.7102C54.254 12.4872 54.2308 12.2554 54.0844 12.109C53.937 11.9626 53.7072 11.9364 53.5336 12.0547L36.8038 21.6477C36.5032 21.8203 36.1628 21.9105 35.8166 21.9105H18.7659L17.5567 23.1196L30.5562 27.9942C31.1884 28.2318 31.6567 28.7738 31.8002 29.4332C31.9428 30.0936 31.7411 30.7811 31.263 31.2581L27.2913 35.2299C26.8394 35.6828 26.2004 35.8912 25.5604 35.7846L15.9577 34.1846V36.9753L19.9295 40.9471L20.5113 40.3653C21.287 39.5896 22.5437 39.5896 23.3195 40.3653C24.0952 41.1411 24.0952 42.3978 23.3195 43.1735L22.7377 43.7553L23.9013 44.9189L24.4831 44.3371C25.2588 43.5614 26.5155 43.5614 27.2913 44.3371C28.067 45.1129 28.067 46.3696 27.2913 47.1453L25.3054 49.1312C24.9175 49.5191 24.4094 49.713 23.9013 49.713C23.3932 49.713 22.885 49.5191 22.4972 49.1312L12.5677 39.2017C12.1953 38.8294 11.9859 38.3242 11.9859 37.7976V31.8399C11.9859 31.2562 12.2429 30.7015 12.6879 30.3243C13.133 29.9471 13.7226 29.7813 14.2986 29.8812L25.2055 31.6993L26.2741 30.6308L13.2746 25.7562C12.6424 25.5186 12.174 24.9766 12.0305 24.3172C11.888 23.6568 12.0897 22.9693 12.5677 22.4923L16.5395 18.5205C16.9118 18.1481 17.417 17.9387 17.9436 17.9387H35.2882L51.4449 8.67924C53.071 7.59029 55.4109 7.82011 56.8925 9.3008C58.3732 10.7815 58.605 13.1213 57.4433 14.8629ZM14.5536 52.2807L10.5818 56.2525C9.80606 57.0282 9.80606 58.2849 10.5818 59.0607C10.9697 59.4485 11.4778 59.6425 11.9859 59.6425C12.494 59.6425 13.0021 59.4485 13.39 59.0607L17.3618 55.0889C18.1375 54.3131 18.1375 53.0564 17.3618 52.2807C16.586 51.505 15.3293 51.505 14.5536 52.2807ZM11.9859 51.6989C13.0827 51.6989 13.9718 50.8097 13.9718 49.713C13.9718 48.6162 13.0827 47.7271 11.9859 47.7271C10.8891 47.7271 10 48.6162 10 49.713C10 50.8097 10.8891 51.6989 11.9859 51.6989Z" fill="white"/>
</svg>
