<svg width="68" height="68" viewBox="0 0 68 68" fill="none" xmlns="http://www.w3.org/2000/svg">
<path d="M17.6067 18.6557C14.6682 18.6557 12.2789 16.2663 12.2789 13.3278C12.2789 10.3893 14.6682 8 17.6067 8C20.5452 8 22.9346 10.3893 22.9346 13.3278C22.9346 16.2663 20.5452 18.6557 17.6067 18.6557ZM17.6067 10.459C16.0248 10.459 14.7379 11.7459 14.7379 13.3278C14.7379 14.9098 16.0248 16.1967 17.6067 16.1967C19.1887 16.1967 20.4756 14.9098 20.4756 13.3278C20.4756 11.7459 19.1887 10.459 17.6067 10.459Z" fill="white"/>
<path d="M50.8032 39.1474C48.545 39.1474 46.7048 37.3072 46.7048 35.0491C46.7048 32.7909 48.545 30.9507 50.8032 30.9507C53.0614 30.9507 54.9015 32.7909 54.9015 35.0491C54.9015 37.3072 53.0614 39.1474 50.8032 39.1474ZM50.8032 33.4097C49.8974 33.4097 49.1638 34.1433 49.1638 35.0491C49.1638 35.9548 49.8974 36.6884 50.8032 36.6884C51.7089 36.6884 52.4425 35.9548 52.4425 35.0491C52.4425 34.1433 51.7089 33.4097 50.8032 33.4097Z" fill="white"/>
<path d="M33.59 18.6557C30.6515 18.6557 28.2621 16.2663 28.2621 13.3278C28.2621 10.3893 30.6515 8 33.59 8C36.5285 8 38.9178 10.3893 38.9178 13.3278C38.9178 16.2663 36.5285 18.6557 33.59 18.6557ZM33.59 10.459C32.008 10.459 30.7212 11.7459 30.7212 13.3278C30.7212 14.9098 32.008 16.1967 33.59 16.1967C35.172 16.1967 36.4588 14.9098 36.4588 13.3278C36.4588 11.7459 35.172 10.459 33.59 10.459Z" fill="white"/>
<path d="M58.9795 51.631L58.2582 47.6679C57.6107 44.1146 54.7664 41.4302 51.1804 40.9958C46.791 40.463 43.4058 37.0204 42.9509 32.6229L42.5042 28.3483C42.0247 23.7582 38.1845 20.2951 33.5616 20.2951C31.6518 20.2951 29.828 20.8852 28.287 22.0041C27.7379 22.4016 27.6149 23.1721 28.0124 23.7213C28.41 24.2705 29.1805 24.3934 29.7296 23.9959C30.8485 23.1844 32.1723 22.7541 33.5616 22.7541C36.9181 22.7541 39.7091 25.2705 40.0575 28.6065L40.5042 32.8811C40.873 36.4138 42.7419 39.4507 45.4755 41.3687V47.7539C45.4755 49.2416 46.0902 50.5859 47.0779 51.5531L47.5287 58.4834C47.5697 59.135 48.1107 59.635 48.7541 59.635C48.7787 59.635 48.8074 59.635 48.832 59.6309C49.5082 59.5899 50.0246 59.0039 49.9837 58.3277L49.6476 52.9465C50.0205 53.0285 50.4099 53.0777 50.8074 53.0777H51.9591L51.6312 58.3277C51.5902 59.0039 52.1025 59.5899 52.7828 59.6309C52.8074 59.6309 52.8361 59.635 52.8607 59.635C53.5041 59.635 54.0451 59.135 54.0861 58.4834L54.4959 51.9261C54.5164 51.5859 54.3976 51.2539 54.164 51.008C53.9304 50.7621 53.6025 50.6228 53.2623 50.6228H50.8033C49.2214 50.6228 47.9345 49.3359 47.9345 47.7539V42.6966C48.8648 43.0613 49.8525 43.3154 50.8853 43.4384C53.3976 43.7417 55.3894 45.6187 55.8402 48.1064L56.5615 52.0695C56.668 52.6638 57.1885 53.0777 57.7705 53.0777C57.8443 53.0777 57.918 53.0695 57.9918 53.0572C58.6598 52.9424 59.1025 52.299 58.9795 51.631Z" fill="white"/>
<path d="M38.9179 38.3277C38.2376 38.3277 37.6884 38.8769 37.6884 39.5572V46.5244H29.4917C29.4917 45.8441 28.9425 45.2949 28.2622 45.2949C27.5819 45.2949 27.0327 45.8441 27.0327 46.5244C27.0327 47.881 28.1352 48.9834 29.4917 48.9834H29.5819L30.3155 58.5039C30.3647 59.1473 30.9015 59.6391 31.5409 59.6391C31.5737 59.6391 31.6024 59.6391 31.6352 59.635C32.3114 59.5817 32.8196 58.9916 32.7663 58.3153L32.0491 48.9834H35.131L34.4138 58.3153C34.3606 58.9916 34.8687 59.5817 35.545 59.635C35.5778 59.6391 35.6105 59.6391 35.6392 59.6391C36.2745 59.6391 36.8155 59.1473 36.8646 58.5039L37.5982 48.9834H37.6884C39.045 48.9834 40.1474 47.881 40.1474 46.5244V39.5572C40.1474 38.8769 39.5982 38.3277 38.9179 38.3277Z" fill="white"/>
<path d="M26.9302 28.3524C26.4507 23.7582 22.6106 20.2951 17.9877 20.2951C13.0328 20.2951 9 24.3278 9 29.2868V41.1966C9 42.799 10.0287 44.1679 11.459 44.6761V55.9506C11.459 57.9834 13.1147 59.6391 15.1475 59.6391C16.0942 59.6391 16.9549 59.2785 17.6065 58.6924C18.2582 59.2785 19.1188 59.6391 20.0655 59.6391C22.0983 59.6391 23.754 57.9834 23.754 55.9506V45.2949C23.754 44.6146 23.2049 44.0654 22.5245 44.0654C21.8442 44.0654 21.295 44.6146 21.295 45.2949V55.9506C21.295 56.6268 20.7418 57.1801 20.0655 57.1801C19.3893 57.1801 18.836 56.6268 18.836 55.9506V41.1966C18.836 40.5163 18.2868 39.9671 17.6065 39.9671C16.9262 39.9671 16.377 40.5163 16.377 41.1966V55.9506C16.377 56.6268 15.8237 57.1801 15.1475 57.1801C14.4713 57.1801 13.918 56.6268 13.918 55.9506V43.6556C13.918 42.9753 13.3688 42.4261 12.6885 42.4261C12.0123 42.4261 11.459 41.8728 11.459 41.1966V29.2868C11.459 25.6844 14.3893 22.7541 17.9877 22.7541C21.3237 22.7541 24.1024 25.2418 24.4753 28.5491V41.1966C24.4753 41.8769 25.0245 42.4261 25.7048 42.4261C26.3852 42.4261 26.9343 41.8769 26.9343 41.1966V28.4795C26.9384 28.4385 26.9343 28.3975 26.9302 28.3524Z" fill="white"/>
</svg>
