<svg width="20" height="15" viewBox="0 0 20 15" fill="none" xmlns="http://www.w3.org/2000/svg">
<path d="M0 5.78125V0.9375C0 0.429688 0.390625 0 0.9375 0H5.78125C6.01562 0 6.25 0.234375 6.25 0.46875V1.40625C6.25 1.67969 6.01562 1.875 5.78125 1.875H1.875V5.78125C1.875 6.05469 1.64062 6.25 1.40625 6.25H0.46875C0.195312 6.25 0 6.05469 0 5.78125ZM13.75 0.46875C13.75 0.234375 13.9453 0 14.2188 0H19.0625C19.5703 0 20 0.429688 20 0.9375V5.78125C20 6.05469 19.7656 6.25 19.5312 6.25H18.5938C18.3203 6.25 18.125 6.05469 18.125 5.78125V1.875H14.2188C13.9453 1.875 13.75 1.67969 13.75 1.40625V0.46875ZM19.5312 8.75C19.7656 8.75 20 8.98438 20 9.21875V14.0625C20 14.6094 19.5703 15 19.0625 15H14.2188C13.9453 15 13.75 14.8047 13.75 14.5312V13.5938C13.75 13.3594 13.9453 13.125 14.2188 13.125H18.125V9.21875C18.125 8.98438 18.3203 8.75 18.5938 8.75H19.5312ZM6.25 14.5312C6.25 14.8047 6.01562 15 5.78125 15H0.9375C0.390625 15 0 14.6094 0 14.0625V9.21875C0 8.98438 0.195312 8.75 0.46875 8.75H1.40625C1.64062 8.75 1.875 8.98438 1.875 9.21875V13.125H5.78125C6.01562 13.125 6.25 13.3594 6.25 13.5938V14.5312Z" fill="#E3F3F2"/>
</svg>
