<svg width="128" height="128" viewBox="0 0 128 128" fill="none" xmlns="http://www.w3.org/2000/svg">
<path d="M3.62003 127.02C3.12003 127.02 2.61003 126.89 2.14003 126.63C0.700029 125.81 0.200029 123.98 1.01003 122.54C6.23003 113.35 15.04 106.47 25.18 103.64C26.78 103.19 28.43 104.13 28.88 105.72C29.33 107.32 28.39 108.97 26.8 109.42C18.18 111.82 10.68 117.69 6.24003 125.5C5.68003 126.47 4.67003 127.02 3.62003 127.02Z" fill="white"/>
<path d="M124.38 127.02C123.34 127.02 122.32 126.47 121.77 125.5C117.33 117.68 109.83 111.82 101.21 109.42C99.61 108.98 98.68 107.32 99.13 105.72C99.57 104.12 101.23 103.19 102.83 103.64C112.97 106.47 121.78 113.35 127 122.54C127.82 123.98 127.31 125.81 125.87 126.63C125.39 126.89 124.88 127.02 124.38 127.02Z" fill="white"/>
<path d="M64 94C49.66 94 38 82.34 38 68C38 66.34 39.34 65 41 65C42.66 65 44 66.34 44 68C44 79.03 52.97 88 64 88C75.03 88 84 79.03 84 68C84 66.34 85.34 65 87 65C88.66 65 90 66.34 90 68C90 82.34 78.34 94 64 94Z" fill="white"/>
<path d="M90 59H38C36.34 59 35 57.66 35 56C35 40.01 48.01 27 64 27C79.99 27 93 40.01 93 56C93 57.66 91.66 59 90 59Z" fill="white"/>
<path d="M103.68 122.52C95.58 108.27 80.38 99.4199 64 99.4199C47.62 99.4199 32.42 108.27 24.32 122.53C23.5 123.97 24.01 125.8 25.45 126.62C25.92 126.89 26.43 127.01 26.93 127.01L69 127V124C69 122.34 70.34 121 72 121H82C83.66 121 85 122.34 85 124V127H101.07C101.57 127 102.08 126.87 102.55 126.61C103.99 125.79 104.49 123.96 103.68 122.52Z" fill="white"/>
<path d="M101.58 42.0201C100.07 41.3401 98.29 42.0201 97.62 43.5301C96.95 45.0401 97.62 46.8201 99.13 47.4901C104.49 49.8901 108.23 54.8001 109.22 60.4701H96.47C94.81 60.4701 93.47 61.8101 93.47 63.4701C93.47 65.1301 94.81 66.4701 96.47 66.4701H103.31C105.34 69.0201 106.47 72.1801 106.47 75.4701C106.47 83.4501 99.98 89.9401 92 89.9401C91.11 89.9401 90.23 89.8601 89.37 89.7001C87.74 89.4001 86.18 90.4801 85.88 92.1101C85.58 93.7401 86.66 95.3001 88.29 95.6001C89.51 95.8201 90.76 95.9401 92.01 95.9401C103.3 95.9401 112.48 86.7601 112.48 75.4701C112.48 72.3201 111.76 69.2501 110.4 66.4701H112.48C114.14 66.4701 115.48 65.1301 115.48 63.4701C115.47 54.2201 110.01 45.8001 101.58 42.0201Z" fill="white"/>
<path d="M38.63 89.7001C37.77 89.8601 36.88 89.9401 36 89.9401C28.02 89.9401 21.53 83.4501 21.53 75.4701C21.53 72.1901 22.65 69.0201 24.69 66.4701H31.53C33.19 66.4701 34.53 65.1301 34.53 63.4701C34.53 61.8101 33.19 60.4701 31.53 60.4701H18.79C19.78 54.8101 23.52 49.9001 28.88 47.4901C30.39 46.8101 31.07 45.0401 30.39 43.5301C29.71 42.0201 27.94 41.3401 26.43 42.0201C17.99 45.8001 12.54 54.2301 12.54 63.4701C12.54 65.1301 13.88 66.4701 15.54 66.4701H17.64C16.28 69.2501 15.54 72.3301 15.54 75.4701C15.54 86.7601 24.72 95.9401 36.01 95.9401C37.26 95.9401 38.51 95.8301 39.73 95.6001C41.36 95.3001 42.44 93.7401 42.14 92.1101C41.83 90.4801 40.27 89.4001 38.63 89.7001Z" fill="white"/>
</svg>
