<svg width="68" height="68" viewBox="0 0 68 68" fill="none" xmlns="http://www.w3.org/2000/svg">
<path d="M42.75 35.9H39.05V35.1159C42.311 33.6845 44.6 30.4333 44.6 26.65V30.35C44.6 31.3717 45.4274 32.2 46.45 32.2C47.4726 32.2 48.3 31.3717 48.3 30.35V19.25C48.3 14.1499 44.1501 10 39.05 10H27.95C22.8499 10 18.7 14.1499 18.7 19.25V30.35C18.7 31.3717 19.5274 32.2 20.55 32.2C21.5726 32.2 22.4 31.3717 22.4 30.35V26.65C22.4 30.4333 24.689 33.6845 27.95 35.1159V35.9H24.25C19.1499 35.9 15 40.0499 15 45.15V56.25C15 57.2717 15.8274 58.1 16.85 58.1H42.75C43.7726 58.1 44.6 57.2717 44.6 56.25C44.6 55.2283 43.7726 54.4 42.75 54.4H32.416L39.816 47H44.6C45.2414 47 45.8357 46.6676 46.1736 46.1229C46.5114 45.5773 46.5421 44.8962 46.2549 44.3226L43.9653 39.7434C46.4413 40.3003 48.3 42.5081 48.3 45.15V56.25C48.3 57.2717 49.1274 58.1 50.15 58.1C51.1726 58.1 52 57.2717 52 56.25V45.15C52 40.0499 47.8501 35.9 42.75 35.9ZM22.4 19.25C22.4 16.1896 24.8896 13.7 27.95 13.7H39.05C42.1104 13.7 44.6 16.1896 44.6 19.25V22.95H22.4V19.25ZM26.1 26.65H40.9C40.9 29.7104 38.4104 32.2 35.35 32.2H31.65C28.5896 32.2 26.1 29.7104 26.1 26.65ZM35.35 35.9V37.3128L33.5 41.0128L31.65 37.3128V35.9H35.35ZM28.6564 39.6L31.4314 45.15L30.9323 46.1482L27.1262 43.6107C26.8227 43.4084 26.4649 43.3 26.1 43.3H25.3936L27.2436 39.6H28.6564ZM18.7 45.15C18.7 42.5081 20.5587 40.3003 23.0347 39.7434L20.7451 44.3226C20.4579 44.8962 20.4886 45.5773 20.8264 46.1229C21.1643 46.6676 21.7586 47 22.4 47H25.5399L29.2648 49.4832L26.8064 54.4H18.7V45.15ZM39.05 43.3C38.5586 43.3 38.0889 43.4951 37.742 43.842L34.7032 46.8808L38.3436 39.6H39.7564L41.6064 43.3H39.05Z" fill="white"/>
</svg>
