<svg width="68" height="68" viewBox="0 0 68 68" fill="none" xmlns="http://www.w3.org/2000/svg">
<path d="M20.9097 44.9144C20.9097 45.537 20.4947 45.952 19.8722 45.952C19.2496 45.952 18.8346 45.537 18.8346 44.9144C18.8346 44.2919 19.2496 43.8769 19.8722 43.8769C20.4947 43.8769 20.9097 44.2919 20.9097 44.9144ZM19.8722 41.8018C18.1083 41.8018 16.7595 43.1506 16.7595 44.9144C16.7595 46.6783 18.1083 48.0271 19.8722 48.0271C21.636 48.0271 22.9849 46.6783 22.9849 44.9144C22.9849 43.1506 21.636 41.8018 19.8722 41.8018Z" fill="white"/>
<path d="M33.3605 44.9144C33.3605 45.537 32.9455 45.952 32.3229 45.952C31.7004 45.952 31.2854 45.537 31.2854 44.9144C31.2854 44.2919 31.7004 43.8769 32.3229 43.8769C32.9455 43.8769 33.3605 44.2919 33.3605 44.9144ZM32.3229 41.8018C30.5591 41.8018 29.2102 43.1506 29.2102 44.9144C29.2102 46.6783 30.5591 48.0271 32.3229 48.0271C34.0868 48.0271 35.4356 46.6783 35.4356 44.9144C35.4356 43.1506 34.0868 41.8018 32.3229 41.8018Z" fill="white"/>
<path d="M45.8112 44.9144C45.8112 45.537 45.3962 45.952 44.7737 45.952C44.1511 45.952 43.7361 45.537 43.7361 44.9144C43.7361 44.2919 44.1511 43.8769 44.7737 43.8769C45.3962 43.8769 45.8112 44.2919 45.8112 44.9144ZM44.7737 41.8018C43.0098 41.8018 41.661 43.1506 41.661 44.9144C41.661 46.6783 43.0098 48.0271 44.7737 48.0271C46.5375 48.0271 47.8864 46.6783 47.8864 44.9144C47.8864 43.1506 46.5375 41.8018 44.7737 41.8018Z" fill="white"/>
<path d="M58.262 35.6801V34.5388C58.262 33.19 57.4319 32.0487 56.1869 31.6336V29.1435C57.4319 28.7285 58.262 27.5871 58.262 26.2383V24.1632C58.262 20.5317 55.5643 17.5228 52.0366 17.004V15.8627C52.0366 14.0988 50.6878 12.75 48.9239 12.75H40.6234C38.8596 12.75 37.5107 14.0988 37.5107 15.8627V16.9003H36.4732C36.1619 16.9003 35.9544 17.004 35.7469 17.2115L33.983 18.9754H28.1727C26.8238 18.9754 25.6825 19.8054 25.2675 21.0505H12.6092V20.0129C12.6092 19.3904 12.1942 18.9754 11.5717 18.9754H1.19604C0.573503 18.9754 0.158478 19.3904 0.158478 20.0129V28.3134C0.158478 28.936 0.573503 29.351 1.19604 29.351H11.5717C12.1942 29.351 12.6092 28.936 12.6092 28.3134V27.2759H25.2675C25.5788 28.1059 26.3051 28.8322 27.1351 29.1435V31.4261H21.9473C20.1834 31.4261 18.8346 32.775 18.8346 34.5388V35.6801C14.1656 36.1989 10.5341 40.1417 10.5341 44.9144C10.5341 50.1023 14.6844 54.2525 19.8722 54.2525H57.2244C62.4122 54.2525 66.5625 50.1023 66.5625 44.9144C66.5625 40.1417 62.931 36.1989 58.262 35.6801ZM10.5341 27.2759H2.2336V21.0505H10.5341V27.2759ZM27.1351 22.0881C27.1351 21.4655 27.5501 21.0505 28.1727 21.0505H34.398C34.7093 21.0505 34.9168 20.9467 35.1243 20.7392L36.8882 18.9754H50.999C53.9042 18.9754 56.1869 21.258 56.1869 24.1632V26.2383C56.1869 26.8609 55.7718 27.2759 55.1493 27.2759H28.1727C27.5501 27.2759 27.1351 26.8609 27.1351 26.2383V22.0881ZM20.9097 34.5388C20.9097 33.9163 21.3248 33.5013 21.9473 33.5013H55.1493C55.7718 33.5013 56.1869 33.9163 56.1869 34.5388V35.5764H20.9097V34.5388ZM19.8722 50.1023C16.967 50.1023 14.6844 47.8196 14.6844 44.9144C14.6844 42.0093 16.967 39.7266 19.8722 39.7266C22.7773 39.7266 25.06 42.0093 25.06 44.9144C25.06 47.8196 22.7773 50.1023 19.8722 50.1023ZM32.3229 50.1023C29.4177 50.1023 27.1351 47.8196 27.1351 44.9144C27.1351 42.0093 29.4177 39.7266 32.3229 39.7266C35.2281 39.7266 37.5107 42.0093 37.5107 44.9144C37.5107 47.8196 35.2281 50.1023 32.3229 50.1023ZM44.7737 50.1023C41.8685 50.1023 39.5859 47.8196 39.5859 44.9144C39.5859 42.0093 41.8685 39.7266 44.7737 39.7266C47.6788 39.7266 49.9615 42.0093 49.9615 44.9144C49.9615 47.8196 47.6788 50.1023 44.7737 50.1023ZM57.2244 50.1023C54.3192 50.1023 52.0366 47.8196 52.0366 44.9144C52.0366 42.0093 54.3192 39.7266 57.2244 39.7266C60.1296 39.7266 62.4122 42.0093 62.4122 44.9144C62.4122 47.8196 60.1296 50.1023 57.2244 50.1023Z" fill="white"/>
<path d="M58.262 44.9144C58.262 45.537 57.8469 45.952 57.2244 45.952C56.6019 45.952 56.1868 45.537 56.1868 44.9144C56.1868 44.2919 56.6019 43.8769 57.2244 43.8769C57.8469 43.8769 58.262 44.2919 58.262 44.9144ZM57.2244 41.8018C55.4606 41.8018 54.1117 43.1506 54.1117 44.9144C54.1117 46.6783 55.4606 48.0271 57.2244 48.0271C58.9883 48.0271 60.3371 46.6783 60.3371 44.9144C60.3371 43.1506 58.9883 41.8018 57.2244 41.8018Z" fill="white"/>
<path d="M30.2478 25.2008H48.9239C49.5465 25.2008 49.9615 24.7857 49.9615 24.1632C49.9615 23.5407 49.5465 23.1256 48.9239 23.1256H30.2478C29.6253 23.1256 29.2102 23.5407 29.2102 24.1632C29.2102 24.7857 29.6253 25.2008 30.2478 25.2008Z" fill="white"/>
<path d="M53.0742 25.2008C53.6472 25.2008 54.1117 24.7362 54.1117 24.1632C54.1117 23.5902 53.6472 23.1256 53.0742 23.1256C52.5011 23.1256 52.0366 23.5902 52.0366 24.1632C52.0366 24.7362 52.5011 25.2008 53.0742 25.2008Z" fill="white"/>
</svg>
