<svg width="68" height="68" viewBox="0 0 68 68" fill="none" xmlns="http://www.w3.org/2000/svg">
<path d="M67.3277 28.3422L66.0593 27.0738C64.0511 25.0656 61.4087 23.903 58.555 23.7973L54.6443 19.8866C54.4329 19.6752 54.2215 19.5695 53.9044 19.5695H12.3663L8.3499 9.63417C8.2442 9.21139 7.82142 9 7.39864 9H3.17085C2.53668 9 2.1139 9.42278 2.1139 10.0569V19.5695H1.05695C0.42278 19.5695 0 19.9923 0 20.6264V26.9681C0 27.3909 0.21139 27.8137 0.634169 27.9194L15.4315 34.2611C15.5372 34.3668 15.7485 34.3668 15.8542 34.3668H58.1322C61.0917 34.3668 63.9454 33.2041 66.0593 31.0902L67.3277 29.8219C67.7504 29.3991 67.7504 28.7649 67.3277 28.3422ZM55.5955 23.7973H51.7905C51.1563 23.7973 50.7336 23.3745 50.7336 22.7403V21.6834H53.4816L55.5955 23.7973ZM2.1139 26.2283V21.6834H48.6197V22.7403C48.6197 24.5372 49.9937 25.9112 51.7905 25.9112H57.0752V32.2529H39.1071V30.139H41.221C43.0178 30.139 44.3919 28.7649 44.3919 26.9681C44.3919 25.1713 43.0178 23.7973 41.221 23.7973H24.3098C23.6757 23.7973 23.2529 24.2201 23.2529 24.8542C23.2529 27.3909 25.0497 29.5048 27.4807 30.0333V32.2529H16.0656L2.1139 26.2283ZM25.5782 25.9112H41.221C41.8552 25.9112 42.278 26.334 42.278 26.9681C42.278 27.6023 41.8552 28.0251 41.221 28.0251H28.5376C27.1636 28.0251 26.0009 27.1795 25.5782 25.9112Z" fill="white"/>
<path d="M47.1399 38.806C44.8146 37.3262 42.2779 36.4807 39.5299 36.4807H30.6515C30.0173 36.4807 29.5945 36.9035 29.5945 37.5376V41.7654C29.5945 42.3996 30.0173 42.8224 30.6515 42.8224H39.5299C42.2779 42.8224 44.8146 41.9768 47.1399 40.4971C47.457 40.2857 47.5627 39.9686 47.5627 39.6515C47.5627 39.3344 47.3513 39.0174 47.1399 38.806ZM39.5299 40.7085H35.9362V38.5946H39.5299C41.221 38.5946 42.8064 38.9117 44.3918 39.6515C42.8064 40.3914 41.221 40.7085 39.5299 40.7085Z" fill="white"/>
<path d="M25.3668 50.221C25.3668 50.8552 25.7895 51.2779 26.4237 51.2779H35.3021C38.0501 51.2779 40.5868 50.4324 42.9121 48.9527C43.2292 48.7413 43.3349 48.4242 43.3349 48.1071C43.3349 47.79 43.1235 47.4729 42.9121 47.2615C40.5868 45.7818 38.0501 44.9362 35.3021 44.9362H26.4237C25.7895 44.9362 25.3668 45.359 25.3668 45.9932V50.221ZM40.164 48.1071C38.6843 48.847 36.9932 49.164 35.3021 49.164H31.7085V47.0501H35.3021C36.9932 47.0501 38.5786 47.3672 40.164 48.1071Z" fill="white"/>
<path d="M47.1399 55.7172C44.8146 54.2374 42.2779 53.3919 39.5299 53.3919H30.6515C30.0173 53.3919 29.5945 53.8147 29.5945 54.4488V58.6766C29.5945 59.3108 30.0173 59.7336 30.6515 59.7336H39.5299C42.2779 59.7336 44.8146 58.888 47.1399 57.4083C47.457 57.1969 47.5627 56.8798 47.5627 56.5627C47.5627 56.2456 47.3513 55.9286 47.1399 55.7172ZM39.5299 57.6197H35.9362V55.5058H39.5299C41.221 55.5058 42.8064 55.8229 44.3918 56.5627C42.8064 57.3026 41.221 57.6197 39.5299 57.6197Z" fill="white"/>
<path d="M13.7403 23.7973H5.28473C4.65056 23.7973 4.22778 24.2201 4.22778 24.8542C4.22778 25.4884 4.65056 25.9112 5.28473 25.9112H13.7403C14.3745 25.9112 14.7973 25.4884 14.7973 24.8542C14.7973 24.2201 14.3745 23.7973 13.7403 23.7973Z" fill="white"/>
<path d="M26.4237 42.8224C27.0579 42.8224 27.4807 42.3996 27.4807 41.7654V37.5376C27.4807 36.9035 27.0579 36.4807 26.4237 36.4807C25.7895 36.4807 25.3668 36.9035 25.3668 37.5376V41.7654C25.3668 42.3996 25.7895 42.8224 26.4237 42.8224Z" fill="white"/>
<path d="M22.196 38.5945C21.5618 38.5945 21.139 39.0173 21.139 39.6515V45.9932C21.139 46.6274 21.5618 47.0501 22.196 47.0501C22.8302 47.0501 23.2529 46.6274 23.2529 45.9932V39.6515C23.2529 39.0173 22.8302 38.5945 22.196 38.5945Z" fill="white"/>
<path d="M17.9681 36.4807C17.334 36.4807 16.9112 36.9035 16.9112 37.5376V41.7654C16.9112 42.3996 17.334 42.8224 17.9681 42.8224C18.6023 42.8224 19.0251 42.3996 19.0251 41.7654V37.5376C19.0251 36.9035 18.6023 36.4807 17.9681 36.4807Z" fill="white"/>
<path d="M22.196 51.278C22.7797 51.278 23.2529 50.8047 23.2529 50.221C23.2529 49.6373 22.7797 49.1641 22.196 49.1641C21.6123 49.1641 21.139 49.6373 21.139 50.221C21.139 50.8047 21.6123 51.278 22.196 51.278Z" fill="white"/>
<path d="M54.9614 36.4807C54.3272 36.4807 53.9044 36.9035 53.9044 37.5376V48.1071C53.9044 48.7413 54.3272 49.1641 54.9614 49.1641C55.5955 49.1641 56.0183 48.7413 56.0183 48.1071V37.5376C56.0183 36.9035 55.5955 36.4807 54.9614 36.4807Z" fill="white"/>
<path d="M50.7336 36.4807C50.0994 36.4807 49.6766 36.9035 49.6766 37.5376V52.3349C49.6766 52.9691 50.0994 53.3919 50.7336 53.3919C51.3678 53.3919 51.7905 52.9691 51.7905 52.3349V37.5376C51.7905 36.9035 51.3678 36.4807 50.7336 36.4807Z" fill="white"/>
<path d="M46.5057 42.8224C45.8716 42.8224 45.4488 43.2452 45.4488 43.8793V48.1071C45.4488 48.7413 45.8716 49.1641 46.5057 49.1641C47.1399 49.1641 47.5627 48.7413 47.5627 48.1071V43.8793C47.5627 43.2452 47.1399 42.8224 46.5057 42.8224Z" fill="white"/>
<path d="M50.7336 57.6197C51.3173 57.6197 51.7905 57.1465 51.7905 56.5627C51.7905 55.979 51.3173 55.5058 50.7336 55.5058C50.1498 55.5058 49.6766 55.979 49.6766 56.5627C49.6766 57.1465 50.1498 57.6197 50.7336 57.6197Z" fill="white"/>
</svg>
