<svg width="68" height="68" viewBox="0 0 68 68" fill="none" xmlns="http://www.w3.org/2000/svg">
<path d="M62.2798 25.7096H31.0926C30.8698 25.7096 30.7584 25.7096 30.6471 25.8244L25.5235 28.4654V26.8578C25.5235 26.1689 25.0779 25.7096 24.4096 25.7096H17.7267C17.0584 25.7096 16.6128 26.1689 16.6128 26.8578V29.1544H13.2714C12.6031 29.1544 12.1575 29.6137 12.1575 30.3027V37.1923C12.1575 37.8813 12.6031 38.3406 13.2714 38.3406H16.6128V40.6371C16.6128 41.3261 17.0584 41.7854 17.7267 41.7854H24.4096C25.0779 41.7854 25.5235 41.3261 25.5235 40.6371V39.0296L30.6471 41.6706C30.7584 41.7854 30.8698 41.7854 31.0926 41.7854H62.2798C65.3985 41.7854 67.8489 39.2592 67.8489 36.044V31.4509C67.8489 28.2358 65.3985 25.7096 62.2798 25.7096ZM32.2064 28.0061H43.3447V39.4889H32.2064V28.0061ZM45.5723 28.0061H54.0696V39.4889H45.5723V28.0061ZM14.3852 36.044V31.4509H16.6128V36.044H14.3852ZM25.5235 30.9916L29.9788 28.6951V38.7999L25.5235 36.5034V30.9916Z" fill="white"/>
<path d="M5.91864 28.0061C4.84691 25.7096 2.62691 24.5613 0.866225 24.5613C0.406915 24.5613 0.100708 25.0206 0.100708 25.7096C0.100708 26.3985 0.406915 26.8578 0.866225 26.8578C2.32071 26.8578 4.2345 28.0061 4.77036 29.6137C4.92347 30.073 5.15312 30.3027 5.45933 30.3027C6.07174 30.3027 7.44967 30.3027 7.98553 31.1065C8.13864 31.3361 8.36829 31.4509 8.52139 31.4509C8.6745 31.4509 8.90415 31.3361 9.05726 31.1065C9.36346 30.6472 9.36346 29.9582 9.05726 29.4989C8.21519 28.2358 6.83726 28.0061 5.91864 28.0061Z" fill="white"/>
<path d="M7.92037 36.3885C7.38894 37.1923 6.8575 37.1923 6.17423 37.1923C5.87055 37.1923 5.6428 37.422 5.49096 37.8813C4.95953 39.4889 2.37828 40.6372 0.859898 40.6372C0.404384 40.6372 0.100708 41.0965 0.100708 41.7854C0.100708 42.4744 0.404384 42.9337 0.859898 42.9337C2.37828 42.9337 5.41504 41.9003 6.62975 39.4889C7.38894 39.4889 8.22405 39.2592 9.05915 37.9961C9.36283 37.5368 9.36283 36.8478 9.05915 36.3885C8.75548 35.9292 8.22405 35.9292 7.92037 36.3885Z" fill="white"/>
<path d="M62.1841 44.082H46.5676C45.7867 44.082 45.2662 44.5413 45.2662 45.2303C45.2662 45.9192 45.7867 46.3785 46.5676 46.3785H62.1841C62.9649 46.3785 63.4855 45.9192 63.4855 45.2303C63.4855 44.5413 62.9649 44.082 62.1841 44.082Z" fill="white"/>
<path d="M56.9786 48.6751H41.362C40.5812 48.6751 40.0607 49.1344 40.0607 49.8234C40.0607 50.5123 40.5812 50.9716 41.362 50.9716H56.9786C57.7594 50.9716 58.28 50.5123 58.28 49.8234C58.28 49.1344 57.7594 48.6751 56.9786 48.6751Z" fill="white"/>
<path d="M45.2662 22.2647C45.2662 22.9537 45.7867 23.413 46.5676 23.413H62.1841C62.9649 23.413 63.4855 22.9537 63.4855 22.2647C63.4855 21.5758 62.9649 21.1165 62.1841 21.1165H46.5676C45.7867 21.1165 45.2662 21.5758 45.2662 22.2647Z" fill="white"/>
<path d="M41.362 18.8199H56.9786C57.7594 18.8199 58.28 18.3606 58.28 17.6716C58.28 16.9827 57.7594 16.5234 56.9786 16.5234H41.362C40.5812 16.5234 40.0607 16.9827 40.0607 17.6716C40.0607 18.3606 40.5812 18.8199 41.362 18.8199Z" fill="white"/>
<path d="M36.1565 48.6751H33.5538C32.7729 48.6751 32.2524 49.1344 32.2524 49.8234C32.2524 50.5123 32.7729 50.9716 33.5538 50.9716H36.1565C36.9373 50.9716 37.4579 50.5123 37.4579 49.8234C37.4579 49.1344 36.9373 48.6751 36.1565 48.6751Z" fill="white"/>
<path d="M33.5538 18.8199H36.1565C36.9373 18.8199 37.4579 18.3606 37.4579 17.6716C37.4579 16.9827 36.9373 16.5234 36.1565 16.5234H33.5538C32.7729 16.5234 32.2524 16.9827 32.2524 17.6716C32.2524 18.3606 32.7729 18.8199 33.5538 18.8199Z" fill="white"/>
</svg>
