<svg width="14" height="15" viewBox="0 0 14 15" fill="none" xmlns="http://www.w3.org/2000/svg">
<path d="M4.5 14.9688H1.5C0.65625 14.9688 0 14.3125 0 13.4688V2.46875C0 1.65625 0.65625 0.96875 1.5 0.96875H4.5C5.3125 0.96875 6 1.65625 6 2.46875V13.4688C6 14.3125 5.3125 14.9688 4.5 14.9688ZM14 13.4688C14 14.3125 13.3125 14.9688 12.5 14.9688H9.5C8.65625 14.9688 8 14.3125 8 13.4688V2.46875C8 1.65625 8.65625 0.96875 9.5 0.96875H12.5C13.3125 0.96875 14 1.65625 14 2.46875V13.4688Z" fill="#E3F3F2"/>
</svg>
