<svg width="25" height="24" viewBox="0 0 25 24" fill="none" xmlns="http://www.w3.org/2000/svg">
<path d="M23.9375 0.375C24.2188 0.375 24.5 0.65625 24.5 0.9375V9.9375C24.5 10.2656 24.2188 10.5 23.9375 10.5H14.9375C14.6094 10.5 14.375 10.2656 14.375 9.9375V8.67188C14.375 8.34375 14.6094 8.10938 14.9375 8.10938L20.8438 8.25C19.3906 5.0625 16.2031 2.8125 12.5 2.8125C7.39062 2.8125 3.3125 6.9375 3.3125 12C3.3125 17.1094 7.39062 21.1875 12.5 21.1875C14.8438 21.1875 16.9531 20.3438 18.5938 18.8906C18.8281 18.7031 19.1562 18.7031 19.3438 18.8906L20.2812 19.8281C20.5156 20.0625 20.5156 20.4375 20.2812 20.6719C18.2188 22.5 15.4531 23.625 12.5 23.625C6.07812 23.625 0.875 18.4688 0.875 12.0469C0.828125 5.67188 6.03125 0.421875 12.4531 0.421875C16.4844 0.375 20.0938 2.4375 22.1562 5.57812L22.0625 0.984375C22.0625 0.65625 22.2969 0.375 22.625 0.375H23.9375Z" fill="#00C6B8"/>
</svg>
