<svg width="25" height="26" viewBox="0 0 25 26" fill="none" xmlns="http://www.w3.org/2000/svg">
<path d="M11 5.54688V4.75H10.9062C11.2344 4.14062 11.6562 3.625 12.125 3.15625C13.9062 1.32812 16.4844 0.625 18.9688 1.23438C19.5781 1.375 20 1.84375 20.1875 2.40625C20.3281 2.96875 20.1875 3.57812 19.7656 4L17 6.71875L17.2344 8.26562L18.7812 8.5L21.5469 5.73438C21.9219 5.35938 22.5312 5.17188 23.1406 5.3125C23.7031 5.5 24.125 5.92188 24.2656 6.53125C24.875 8.96875 24.125 11.5938 22.3438 13.375C21.9219 13.7969 21.4531 14.1719 20.9844 14.4531L19.5312 13C19.4375 12.9531 19.3438 12.8594 19.2969 12.8125C19.8125 12.5781 20.3281 12.25 20.75 11.7812C21.7344 10.8438 22.25 9.53125 22.25 8.21875L19.5312 10.8906L15.3125 10.1875L14.6094 5.96875L17.2812 3.29688H17.2344C15.9219 3.29688 14.6562 3.76562 13.7188 4.75C12.5469 5.92188 12.0312 7.5625 12.3594 9.20312L11 7.79688V5.54688ZM5.46875 22.2812L11.0469 16.7031C11.0469 17.5938 11.3281 18.4375 11.75 19.1875L7.0625 23.875C6.3125 24.625 5.32812 25 4.34375 25C3.3125 25 2.32812 24.625 1.625 23.875C0.875 23.1719 0.5 22.1875 0.5 21.1562C0.5 20.1719 0.875 19.1875 1.625 18.4375L7.90625 12.1562L9.5 13.75L3.17188 20.0312C2.89062 20.3594 2.70312 20.7344 2.70312 21.1562C2.70312 21.5781 2.89062 22 3.17188 22.2812C3.78125 22.8906 4.85938 22.8906 5.46875 22.2812ZM23.9844 19.5625C24.6406 20.2656 24.6406 21.3438 23.9844 22.0469L21.5 24.5312C20.7969 25.1875 19.7188 25.1875 19.0156 24.5312L13.5312 19C12.4531 17.9219 12.2656 16.3281 12.875 15.0156L7.90625 10H5L0.5 4L3.5 1L9.5 5.5V8.45312L14.4688 13.4219C15.7812 12.7656 17.375 13 18.5 14.0781L23.9844 19.5625Z" fill="#00C6B8"/>
</svg>
