<svg width="21" height="16" viewBox="0 0 21 16" fill="none" xmlns="http://www.w3.org/2000/svg">
<path d="M20.3125 5.34375C20.5312 5.5625 20.5312 5.875 20.3438 6.0625L19.2812 7.125C19.0625 7.3125 18.7812 7.34375 18.5625 7.15625C14 2.96875 6.96875 2.96875 2.40625 7.15625C2.21875 7.34375 1.90625 7.3125 1.6875 7.125L0.625 6.0625C0.4375 5.875 0.4375 5.5625 0.65625 5.34375C6.1875 0.25 14.7812 0.25 20.3125 5.34375ZM10.5 11.5C11.5938 11.5 12.5 12.4062 12.5 13.5C12.5 14.625 11.5938 15.5 10.5 15.5C9.375 15.5 8.5 14.625 8.5 13.5C8.5 12.4062 9.375 11.5 10.5 11.5ZM16.8125 8.90625C17.0312 9.09375 17.0312 9.4375 16.8438 9.625L15.75 10.6875C15.5625 10.875 15.2812 10.875 15.0625 10.7188C12.4375 8.4375 8.53125 8.4375 5.90625 10.7188C5.6875 10.875 5.40625 10.875 5.21875 10.6875L4.125 9.625C3.9375 9.4375 3.9375 9.09375 4.15625 8.90625C7.75 5.71875 13.2188 5.71875 16.8125 8.90625Z" fill="#E3F3F2"/>
</svg>
