<svg width="15" height="11" viewBox="0 0 15 11" fill="none" xmlns="http://www.w3.org/2000/svg">
<path d="M9.5 8.5C9.5 9.625 8.59375 10.5 7.5 10.5C6.375 10.5 5.5 9.625 5.5 8.5C5.5 7.40625 6.375 6.5 7.5 6.5C8.59375 6.5 9.5 7.40625 9.5 8.5ZM13.8438 4.625L12.75 5.6875C12.5625 5.875 12.2812 5.875 12.0625 5.71875C9.4375 3.4375 5.53125 3.4375 2.90625 5.71875C2.6875 5.875 2.40625 5.875 2.21875 5.6875L1.125 4.625C0.9375 4.4375 0.9375 4.09375 1.15625 3.90625C4.75 0.71875 10.2188 0.71875 13.8125 3.90625C14.0312 4.09375 14.0312 4.4375 13.8438 4.625Z" fill="#E3F3F2"/>
</svg>
