<svg width="63" height="58" viewBox="0 0 63 58" fill="none" xmlns="http://www.w3.org/2000/svg">
<path d="M40.125 27.875C40.3125 27.875 40.5 28.0625 40.5 28.25V29.75C40.5 29.9844 40.3125 30.125 40.125 30.125H32.625V37.625C32.625 37.8594 32.4375 38 32.25 38H30.75C30.5156 38 30.375 37.8594 30.375 37.625V30.125H22.875C22.6406 30.125 22.5 29.9844 22.5 29.75V28.25C22.5 28.0625 22.6406 27.875 22.875 27.875H30.375V20.375C30.375 20.1875 30.5156 20 30.75 20H32.25C32.4375 20 32.625 20.1875 32.625 20.375V27.875H40.125Z" fill="#00C6B8"/>
</svg>
